<svg width="962" height="532" viewBox="0 0 962 532" fill="none" xmlns="http://www.w3.org/2000/svg">
<path d="M575.64 139.05C580.119 139.05 583.75 135.419 583.75 130.94C583.75 126.461 580.119 122.83 575.64 122.83C571.161 122.83 567.53 126.461 567.53 130.94C567.53 135.419 571.161 139.05 575.64 139.05Z" stroke="#FF6700" stroke-width="4.35" stroke-miterlimit="10"/>
<path d="M571.37 169.32C561.66 157.36 550.58 146.56 538.37 137.17C538.33 137.22 538.29 137.26 538.27 137.29C525.55 152.27 514.65 168.83 505.89 186.61C502.9 192.71 500.15 198.96 497.68 205.33C496.53 208.3 495.42 211.3 494.39 214.32C491.16 223.77 488.48 233.47 486.45 243.39C484.37 253.4 482.94 263.64 482.17 274.07L529.48 274.48C530.41 263.83 532.18 253.44 534.75 243.39C535.63 239.91 536.61 236.47 537.67 233.07C538.82 229.38 540.08 225.74 541.44 222.16C543.61 216.41 546.05 210.8 548.74 205.34C555.03 192.52 562.69 180.5 571.51 169.48C571.46 169.44 571.42 169.39 571.38 169.33L571.37 169.32ZM571.37 169.32C561.66 157.36 550.58 146.56 538.37 137.17C538.33 137.22 538.29 137.26 538.27 137.29C525.55 152.27 514.65 168.83 505.89 186.61C502.9 192.71 500.15 198.96 497.68 205.33C496.53 208.3 495.42 211.3 494.39 214.32C491.16 223.77 488.48 233.47 486.45 243.39C484.37 253.4 482.94 263.64 482.17 274.07C481.74 279.95 481.51 285.9 481.51 291.9C481.51 295.2 481.58 298.48 481.72 301.75C482.09 311.15 483.01 320.39 484.46 329.48C485.51 336.15 486.85 342.73 488.44 349.2H537.2C536.99 348.51 536.78 347.81 536.58 347.11C534.9 341.4 533.48 335.57 532.35 329.65C531.72 326.43 531.17 323.18 530.71 319.89C530.56 318.79 530.4 317.68 530.27 316.6C530.19 315.94 530.12 315.29 530.04 314.63C529.94 313.81 529.85 313.01 529.77 312.18C529.65 311 529.54 309.81 529.44 308.62C529.35 307.57 529.28 306.52 529.19 305.46C529.17 305.21 529.16 304.96 529.16 304.73C529.08 303.64 529.02 302.55 528.97 301.46C528.81 298.29 528.73 295.09 528.73 291.88C528.73 286.01 529 280.2 529.49 274.46C530.42 263.81 532.19 253.42 534.76 243.37C535.64 239.89 536.62 236.45 537.68 233.05C538.83 229.36 540.09 225.72 541.45 222.14C543.62 216.39 546.06 210.78 548.75 205.32C555.04 192.5 562.7 180.48 571.52 169.46C571.47 169.42 571.43 169.37 571.39 169.31L571.37 169.32ZM530.69 319.89C530.54 318.79 530.38 317.68 530.25 316.6C530.17 315.94 530.1 315.29 530.02 314.63C529.92 313.81 529.83 313.01 529.75 312.18C529.63 311 529.52 309.81 529.42 308.62C529.33 307.57 529.26 306.52 529.17 305.46C529.15 305.21 529.14 304.96 529.14 304.73C529.06 303.64 529 302.55 528.95 301.46C528.79 298.29 528.71 295.09 528.71 291.88C528.71 286.01 528.98 280.2 529.47 274.46C530.4 263.81 532.17 253.42 534.74 243.37C535.62 239.89 536.6 236.45 537.66 233.05H513.13L494.39 214.31C491.16 223.76 488.48 233.46 486.45 243.38C484.37 253.39 482.94 263.63 482.17 274.06C481.74 279.94 481.51 285.89 481.51 291.89C481.51 295.19 481.58 298.47 481.72 301.74C482.09 311.14 483.01 320.38 484.46 329.47C485.51 336.14 486.85 342.72 488.44 349.19H524.48C528.47 348.39 532.52 347.7 536.58 347.1C534.9 341.39 533.48 335.56 532.35 329.64C531.72 326.42 531.17 323.17 530.71 319.88L530.69 319.89ZM957.17 246.34C935.83 135.93 838.43 52.54 721.51 52.54C663.78 52.54 610.81 72.86 569.42 106.72C569.38 106.75 569.33 106.78 569.29 106.82C558.1 115.99 547.74 126.15 538.38 137.16C538.34 137.21 538.3 137.25 538.28 137.28C525.56 152.26 514.66 168.82 505.9 186.6C502.91 192.7 500.16 198.95 497.69 205.32C496.54 208.29 495.43 211.29 494.4 214.31C491.17 223.76 488.49 233.46 486.46 243.38C484.38 253.39 482.95 263.63 482.18 274.06C481.75 279.94 481.52 285.89 481.52 291.89C481.52 295.19 481.59 298.47 481.73 301.74C482.1 311.14 483.02 320.38 484.47 329.47C485.52 336.14 486.86 342.72 488.45 349.19C489.21 352.29 490.04 355.37 490.93 358.43C495.13 372.93 500.66 386.88 507.42 400.12C515.89 416.79 526.29 432.34 538.3 446.48C538.33 446.52 538.36 446.57 538.4 446.6C547.76 457.61 558.12 467.77 569.31 476.95C569.35 476.98 569.4 477.02 569.44 477.04C610.84 510.9 663.8 531.23 721.53 531.23C733.42 531.23 745.11 530.37 756.53 528.7C772.31 526.41 787.58 522.58 802.19 517.37C895.06 484.33 961.53 395.85 961.53 291.89V290.27C961.43 275.25 959.94 260.56 957.19 246.33L957.17 246.34ZM911.66 324.25C900 394.76 850.89 452.44 785.69 475.7C770.66 481.06 754.78 484.59 738.3 486.03C732.77 486.52 727.17 486.76 721.51 486.76C676.43 486.76 634.97 471.14 602.14 444.94C590.83 435.92 580.55 425.64 571.5 414.32C565.33 406.61 559.73 398.42 554.77 389.8C547.45 377.11 541.52 363.51 537.18 349.21C536.97 348.52 536.76 347.82 536.56 347.12C534.88 341.41 533.46 335.58 532.33 329.66C531.7 326.44 531.15 323.19 530.69 319.9C530.54 318.8 530.38 317.69 530.25 316.61C530.17 315.95 530.1 315.3 530.02 314.64C529.92 313.82 529.83 313.02 529.75 312.19C529.63 311.01 529.52 309.82 529.42 308.63C529.33 307.58 529.26 306.53 529.17 305.47C529.15 305.22 529.14 304.97 529.14 304.74C529.06 303.65 529 302.56 528.95 301.47C528.79 298.3 528.71 295.1 528.71 291.89C528.71 286.02 528.98 280.21 529.47 274.47C530.4 263.82 532.17 253.43 534.74 243.38C535.62 239.9 536.6 236.46 537.66 233.06C538.81 229.37 540.07 225.73 541.43 222.15C543.6 216.4 546.04 210.79 548.73 205.33C555.02 192.51 562.68 180.49 571.5 169.47C580.55 158.15 590.83 147.87 602.14 138.85C634.97 112.66 676.42 97.03 721.51 97.03C812.48 97.03 888.72 160.7 909 246.35C911.33 256.22 912.93 266.38 913.72 276.77C914 280.51 914.18 284.28 914.26 288.08C914.26 288.58 914.28 289.09 914.28 289.59C914.3 290.36 914.3 291.12 914.3 291.9V292.85C914.3 293.18 914.3 293.5 914.3 293.82V293.97C914.27 297.66 914.13 301.31 913.89 304.93C913.46 311.46 912.71 317.91 911.68 324.26L911.66 324.25ZM530.69 319.89C530.54 318.79 530.38 317.68 530.25 316.6C530.17 315.94 530.1 315.29 530.02 314.63C529.92 313.81 529.83 313.01 529.75 312.18C529.63 311 529.52 309.81 529.42 308.62C529.33 307.57 529.26 306.52 529.17 305.46C529.15 305.21 529.14 304.96 529.14 304.73C529.06 303.64 529 302.55 528.95 301.46C528.79 298.29 528.71 295.09 528.71 291.88C528.71 286.01 528.98 280.2 529.47 274.46C530.4 263.81 532.17 253.42 534.74 243.37C535.62 239.89 536.6 236.45 537.66 233.05H513.13L494.39 214.31C491.16 223.76 488.48 233.46 486.45 243.38C484.37 253.39 482.94 263.63 482.17 274.06C481.74 279.94 481.51 285.89 481.51 291.89C481.51 295.19 481.58 298.47 481.72 301.74C482.09 311.14 483.01 320.38 484.46 329.47C485.51 336.14 486.85 342.72 488.44 349.19H524.48C528.47 348.39 532.52 347.7 536.58 347.1C534.9 341.39 533.48 335.56 532.35 329.64C531.72 326.42 531.17 323.17 530.71 319.88L530.69 319.89ZM530.69 319.89C530.54 318.79 530.38 317.68 530.25 316.6C530.17 315.94 530.1 315.29 530.02 314.63C529.92 313.81 529.83 313.01 529.75 312.18C529.63 311 529.52 309.81 529.42 308.62C529.33 307.57 529.26 306.52 529.17 305.46C529.15 305.21 529.14 304.96 529.14 304.73C529.06 303.64 529 302.55 528.95 301.46C528.79 298.29 528.71 295.09 528.71 291.88C528.71 286.01 528.98 280.2 529.47 274.46C530.4 263.81 532.17 253.42 534.74 243.37C535.62 239.89 536.6 236.45 537.66 233.05H513.13L494.39 214.31C491.16 223.76 488.48 233.46 486.45 243.38C484.37 253.39 482.94 263.63 482.17 274.06C481.74 279.94 481.51 285.89 481.51 291.89C481.51 295.19 481.58 298.47 481.72 301.74C482.09 311.14 483.01 320.38 484.46 329.47C485.51 336.14 486.85 342.72 488.44 349.19H524.48C528.47 348.39 532.52 347.7 536.58 347.1C534.9 341.39 533.48 335.56 532.35 329.64C531.72 326.42 531.17 323.17 530.71 319.88L530.69 319.89ZM571.37 169.32C561.66 157.36 550.58 146.56 538.37 137.17C538.33 137.22 538.29 137.26 538.27 137.29C525.55 152.27 514.65 168.83 505.89 186.61C502.9 192.71 500.15 198.96 497.68 205.33C496.53 208.3 495.42 211.3 494.39 214.32C491.16 223.77 488.48 233.47 486.45 243.39C484.37 253.4 482.94 263.64 482.17 274.07C481.74 279.95 481.51 285.9 481.51 291.9C481.51 295.2 481.58 298.48 481.72 301.75C482.09 311.15 483.01 320.39 484.46 329.48C485.51 336.15 486.85 342.73 488.44 349.2H537.2C536.99 348.51 536.78 347.81 536.58 347.11C534.9 341.4 533.48 335.57 532.35 329.65C531.72 326.43 531.17 323.18 530.71 319.89C530.56 318.79 530.4 317.68 530.27 316.6C530.19 315.94 530.12 315.29 530.04 314.63C529.94 313.81 529.85 313.01 529.77 312.18C529.65 311 529.54 309.81 529.44 308.62C529.35 307.57 529.28 306.52 529.19 305.46C529.17 305.21 529.16 304.96 529.16 304.73C529.08 303.64 529.02 302.55 528.97 301.46C528.81 298.29 528.73 295.09 528.73 291.88C528.73 286.01 529 280.2 529.49 274.46C530.42 263.81 532.19 253.42 534.76 243.37C535.64 239.89 536.62 236.45 537.68 233.05C538.83 229.36 540.09 225.72 541.45 222.14C543.62 216.39 546.06 210.78 548.75 205.32C555.04 192.5 562.7 180.48 571.52 169.46C571.47 169.42 571.43 169.37 571.39 169.31L571.37 169.32ZM537.18 349.2C536.97 348.51 536.76 347.81 536.56 347.11C534.88 341.4 533.46 335.57 532.33 329.65C531.7 326.43 531.15 323.18 530.69 319.89C530.54 318.79 530.38 317.68 530.25 316.6C530.17 315.94 530.1 315.29 530.02 314.63C529.92 313.81 529.83 313.01 529.75 312.18C529.63 311 529.52 309.81 529.42 308.62C529.33 307.57 529.26 306.52 529.17 305.46C529.15 305.21 529.14 304.96 529.14 304.73C529.06 303.64 529 302.55 528.95 301.46C528.79 298.29 528.71 295.09 528.71 291.88C528.71 286.01 528.98 280.2 529.47 274.46C530.4 263.81 532.17 253.42 534.74 243.37C535.62 239.89 536.6 236.45 537.66 233.05C538.81 229.36 540.07 225.72 541.43 222.14C543.6 216.39 546.04 210.78 548.73 205.32C555.02 192.5 562.68 180.48 571.5 169.46C571.45 169.42 571.41 169.37 571.37 169.31C561.66 157.35 550.58 146.55 538.37 137.16C538.33 137.21 538.29 137.25 538.27 137.28C525.55 152.26 514.65 168.82 505.89 186.6C502.9 192.7 500.15 198.95 497.68 205.32C496.53 208.29 495.42 211.29 494.39 214.31C491.16 223.76 488.48 233.46 486.45 243.38C484.37 253.39 482.94 263.63 482.17 274.06C481.74 279.94 481.51 285.89 481.51 291.89C481.51 295.19 481.58 298.47 481.72 301.74C482.09 311.14 483.01 320.38 484.46 329.47C485.51 336.14 486.85 342.72 488.44 349.19C489.2 352.29 490.03 355.37 490.92 358.43C495.12 372.93 500.65 386.88 507.41 400.12C515.88 416.79 526.28 432.34 538.29 446.48C538.32 446.52 538.35 446.57 538.39 446.6C550.6 437.21 561.68 426.42 571.39 414.46C571.42 414.42 571.47 414.36 571.52 414.31C565.35 406.6 559.75 398.41 554.79 389.79C547.47 377.1 541.54 363.5 537.2 349.2H537.18Z" fill="#FF6700"/>
<path d="M918.82 291.85C918.82 296.21 921.87 300.62 921.59 304.91L860.38 305L849.68 324.25L805.14 404.41L776.51 334.61L762.87 301.35L740.31 246.35L720.88 199L699.61 246.35L680.98 287.81L678.06 294.33L664.77 323.93L662.07 329.93L654.85 329.91L611.05 329.82L529.85 329.64C529.22 326.41 529.42 323.45 528.94 320.17C528.79 319.07 528.85 317.47 528.71 316.37C528.63 315.72 528.78 314.22 528.71 313.56C528.61 312.74 528.77 313.24 528.69 312.42C528.57 311.24 528.4 309.73 528.3 308.55C528.21 307.5 527.89 306.5 527.82 305.44C527.8 305.2 527.82 304.62 527.82 304.38C527.75 303.3 527.54 302.57 527.48 301.48L614.5 301.66L643.86 301.72L657.07 272.31L661.79 261.82L722.06 127.67L770.74 246.35L788.76 290.29L804.36 328.34L808.97 339.56L816.76 325.54L836.35 290.29L843.8 276.88L921.42 276.76C921.71 280.52 918.69 284.22 918.78 288.03C918.78 288.53 918.8 289.04 918.81 289.54C918.83 290.31 918.83 291.08 918.83 291.85H918.82Z" fill="#FF6700"/>
<path d="M656.84 272.81V272.79C656.84 272.63 656.82 272.47 656.81 272.31L643.61 301.71L614.24 301.65C613.86 309.21 613.07 316.62 611.85 323.92C611.53 325.9 611.17 327.87 610.79 329.81L654.59 329.9C654.91 327.91 655.2 325.92 655.47 323.91C656.88 313.43 657.61 302.75 657.61 291.89C657.61 285.47 657.35 279.09 656.84 272.8V272.81ZM569.28 106.83C569.28 106.83 569.2 106.76 569.15 106.73C528.29 73.69 476.26 53.8899 419.61 53.8899C391.29 53.8899 364.12 58.8399 338.93 67.9199V114.46C363.51 103.26 390.84 97.02 419.61 97.02C464.19 97.02 505.27 112 538.1 137.17C538.14 137.22 538.21 137.26 538.25 137.29C550.47 146.7 561.54 157.5 571.22 169.47C571.26 169.43 571.3 169.38 571.35 169.32C580.36 158.05 590.61 147.82 601.86 138.84C592.05 127.16 581.13 116.44 569.26 106.82L569.28 106.83ZM571.24 414.3C561.55 426.28 550.48 437.09 538.26 446.48C538.22 446.52 538.15 446.57 538.11 446.6C505.27 471.77 464.19 486.75 419.62 486.75C414.62 486.75 409.65 486.56 404.74 486.19C388.18 484.94 372.19 481.61 357.05 476.48C320.27 464.02 288.43 440.89 265.22 410.76C258.51 402.06 252.52 392.79 247.35 383.03C232.93 355.83 224.77 324.81 224.77 291.89C224.77 276.86 226.46 262.23 229.69 248.19C231.87 238.65 234.75 229.39 238.28 220.45H218.92V220.48H192.54C185.45 243.02 181.64 267.01 181.64 291.89C181.64 395.84 248.3 484.23 341.2 516.64C355.85 521.75 371.16 525.49 386.96 527.65C397.64 529.12 408.55 529.87 419.64 529.87C476.28 529.87 528.32 510.08 569.18 477.03C569.23 477 569.27 476.97 569.31 476.94C581.17 467.32 592.1 456.6 601.91 444.92C590.6 435.91 580.32 425.62 571.27 414.29L571.24 414.3Z" fill="#FF6700"/>
<path d="M349 344.58C365 344.58 377.97 331.61 377.97 315.61C377.97 299.61 365 286.64 349 286.64C333 286.64 320.03 299.61 320.03 315.61C320.03 331.61 333 344.58 349 344.58Z" fill="#FF6700" stroke="#FF6700" stroke-width="4.35" stroke-miterlimit="10"/>
<path d="M519.4 301.75H357.49V329.48H519.4V301.75Z" fill="#FF6700"/>
<path d="M373.7 180.77C389.7 180.77 402.67 167.799 402.67 151.8C402.67 135.8 389.7 122.83 373.7 122.83C357.7 122.83 344.73 135.8 344.73 151.8C344.73 167.799 357.7 180.77 373.7 180.77Z" fill="#FF6700" stroke="#FF6700" stroke-width="4.35" stroke-miterlimit="10"/>
<path d="M484.94 165.67H445.72H382.19V137.94H417.99H457.21L484.94 165.67Z" fill="#FF6700"/>
<path d="M541.42 222.15L524.6 205.33L505.89 186.62L484.94 165.67L457.2 137.93H417.99L445.72 165.67L485.38 205.33L494.38 214.33L513.12 233.06H537.65L541.42 222.15Z" fill="#FF6700"/>
<path d="M541.42 222.15C543.59 216.41 546.03 210.8 548.73 205.33H485.38L494.38 214.33L513.12 233.07H537.65L541.42 222.16V222.15Z" fill="#FF6700"/>
<path d="M438.3 263.3C454.3 263.3 467.27 250.33 467.27 234.33C467.27 218.33 454.3 205.36 438.3 205.36C422.3 205.36 409.33 218.33 409.33 234.33C409.33 250.33 422.3 263.3 438.3 263.3Z" fill="#FF6700" stroke="#FF6700" stroke-width="4.35" stroke-miterlimit="10"/>
<path d="M417.53 220.46H218.91V248.19H417.53V220.46Z" fill="#FF6700"/>
<path d="M470.83 396.9C470.83 412.9 457.86 425.87 441.86 425.87C430.89 425.87 421.34 419.77 416.43 410.77C415.22 408.56 414.28 406.18 413.69 403.67C413.16 401.5 412.89 399.23 412.89 396.9C412.89 391.88 414.17 387.15 416.42 383.04C421.33 374.03 430.88 367.93 441.86 367.93C447.9 367.93 453.51 369.78 458.15 372.94C465.8 378.15 470.83 386.94 470.83 396.9Z" fill="#FF6700" stroke="#FF6700" stroke-width="4.35" stroke-miterlimit="10"/>
<path d="M433.74 383.04H244.14V410.77H433.74V383.04Z" fill="#FF6700"/>
<path d="M338.94 220.46H218.91V220.49H338.94V220.46Z" fill="white"/>
<path d="M11.8338 186V52.4215H39.6253V186H11.8338ZM126.785 188.152C117.222 188.152 108.317 186.418 100.069 182.952C91.9407 179.485 84.8285 174.644 78.7323 168.429C72.6361 162.213 67.8548 154.921 64.3883 146.554C61.0414 138.187 59.3679 129.042 59.3679 119.121C59.3679 109.2 61.0414 100.056 64.3883 91.6882C67.7352 83.2013 72.4568 75.9098 78.553 69.8136C84.6492 63.5979 91.7614 58.8165 99.8897 55.4696C108.138 52.0031 117.103 50.2699 126.785 50.2699C136.467 50.2699 145.133 51.8836 152.783 55.111C160.553 58.3384 167.127 62.6416 172.506 68.0206C177.885 73.3996 181.71 79.3763 183.981 85.9506L159.417 97.7844C157.146 91.3296 153.142 86.0104 147.404 81.8267C141.786 77.5235 134.913 75.3719 126.785 75.3719C118.896 75.3719 111.963 77.2247 105.986 80.9302C100.009 84.6357 95.3474 89.7757 92.0005 96.35C88.7731 102.805 87.1594 110.395 87.1594 119.121C87.1594 127.847 88.7731 135.497 92.0005 142.071C95.3474 148.646 100.009 153.786 105.986 157.491C111.963 161.197 118.896 163.05 126.785 163.05C134.913 163.05 141.786 160.958 147.404 156.774C153.142 152.471 157.146 147.092 159.417 140.637L183.981 152.471C181.71 159.045 177.885 165.022 172.506 170.401C167.127 175.78 160.553 180.083 152.783 183.31C145.133 186.538 136.467 188.152 126.785 188.152ZM201.815 186V52.4215H253.095C262.299 52.4215 270.427 54.0352 277.479 57.2626C284.651 60.49 290.269 65.2713 294.334 71.6066C298.398 77.9419 300.43 85.7713 300.43 95.0949C300.43 104.179 298.338 111.889 294.154 118.225C290.09 124.56 284.472 129.401 277.3 132.748C270.248 135.975 262.179 137.589 253.095 137.589H229.606V186H201.815ZM229.606 113.383H253.274C257.218 113.383 260.625 112.607 263.494 111.053C266.363 109.499 268.574 107.347 270.128 104.598C271.802 101.849 272.638 98.6809 272.638 95.0949C272.638 91.3894 271.802 88.162 270.128 85.4127C268.574 82.6634 266.363 80.5118 263.494 78.9579C260.625 77.404 257.218 76.627 253.274 76.627H229.606V113.383Z" fill="white"/>
</svg>
