<?xml version="1.0" encoding="UTF-8"?>
<svg id="Layer_1" xmlns="http://www.w3.org/2000/svg" version="1.1" viewBox="0 0 351.83 64.31">
  <!-- Generator: Adobe Illustrator 30.0.0, SVG Export Plug-In . SVG Version: 2.1.1 Build 123)  -->
  <g>
    <path d="M33.56,43.28h-.1c-.71-.04-1.31-.53-1.5-1.21l-5.34-19.59-2.74,9.14c-.21.7-.85,1.18-1.58,1.18h-10.25c-.91,0-1.65-.74-1.65-1.65s.74-1.65,1.65-1.65h9.02l4.04-13.49c.21-.7.85-1.18,1.58-1.18h.02c.74,0,1.38.51,1.57,1.22l5.58,20.45,2.42-5.96c.25-.62.86-1.03,1.53-1.03h8.21c.91,0,1.65.74,1.65,1.65s-.74,1.65-1.65,1.65h-7.1l-3.83,9.46c-.25.63-.86,1.03-1.53,1.03v-.02Z"/>
    <path d="M29.03,58.08C13.02,58.08,0,45.06,0,29.05S13.02.02,29.03.02s29.04,13.03,29.04,29.03-13.03,29.03-29.04,29.03ZM29.03,3.31C14.84,3.31,3.3,14.85,3.3,29.04s11.54,25.73,25.73,25.73,25.73-11.54,25.73-25.73S43.22,3.31,29.03,3.31Z"/>
  </g>
  <g>
    <path d="M80.1,29L72.34.4h4.61l4.13,16.39c.26,1.01.49,2.06.71,3.15s.43,2.19.64,3.3.41,2.23.6,3.34h-.65c.21-1.11.42-2.23.63-3.34.22-1.11.44-2.21.67-3.3.23-1.09.48-2.14.75-3.15L88.67.4h4.8l4.2,16.39c.27,1.01.52,2.06.75,3.15s.46,2.19.68,3.3.44,2.23.64,3.34h-.69c.2-1.11.41-2.23.61-3.34s.43-2.21.66-3.3c.24-1.09.47-2.14.7-3.15L105.15.4h4.65l-7.79,28.6h-5.05l-4.55-16.95c-.35-1.33-.67-2.78-.96-4.34s-.6-3.28-.9-5.14h1c-.32,1.79-.61,3.45-.87,4.97s-.59,3.03-.99,4.51l-4.53,16.95h-5.07.01Z"/>
    <path d="M120.92,29.48c-2.14,0-3.99-.34-5.57-1.02s-2.81-1.65-3.7-2.91-1.38-2.76-1.47-4.5h4.4c.09,1.04.43,1.89,1.01,2.57s1.34,1.18,2.28,1.52c.93.33,1.94.5,3.03.5,1.22,0,2.29-.19,3.24-.57s1.69-.92,2.24-1.61c.55-.7.83-1.51.83-2.43,0-.83-.24-1.51-.72-2.04-.48-.53-1.13-.97-1.94-1.32s-1.74-.66-2.77-.93l-3.34-.92c-2.34-.63-4.17-1.56-5.48-2.78-1.31-1.23-1.97-2.82-1.97-4.78,0-1.65.44-3.09,1.33-4.33.89-1.23,2.1-2.19,3.63-2.88,1.53-.68,3.25-1.03,5.17-1.03s3.68.34,5.17,1.03,2.66,1.62,3.51,2.81c.85,1.19,1.3,2.55,1.33,4.07h-4.26c-.14-1.31-.75-2.32-1.81-3.03-1.07-.72-2.42-1.08-4.04-1.08-1.15,0-2.15.18-3,.54s-1.51.85-1.98,1.49c-.47.63-.7,1.35-.7,2.16,0,.91.28,1.64.83,2.2.56.56,1.24,1,2.04,1.32s1.56.59,2.29.78l2.78.73c.91.23,1.85.54,2.81.93.97.39,1.86.9,2.68,1.52.82.62,1.48,1.39,1.99,2.3.51.92.76,2.02.76,3.31,0,1.61-.42,3.05-1.25,4.32s-2.04,2.26-3.62,2.99c-1.58.72-3.49,1.08-5.73,1.08h0Z"/>
    <path d="M146.29,29.38c-2.47,0-4.68-.59-6.63-1.76-1.95-1.17-3.49-2.85-4.61-5.05-1.12-2.19-1.68-4.82-1.68-7.86s.56-5.69,1.68-7.88c1.12-2.19,2.66-3.88,4.61-5.06,1.95-1.18,4.16-1.77,6.63-1.77s4.67.59,6.61,1.77,3.47,2.86,4.59,5.06c1.12,2.19,1.68,4.82,1.68,7.88s-.56,5.67-1.68,7.86c-1.12,2.19-2.65,3.88-4.59,5.05s-4.14,1.76-6.61,1.76ZM146.29,25.39c1.63,0,3.08-.41,4.37-1.22s2.3-2.02,3.05-3.61,1.12-3.54,1.12-5.85-.37-4.29-1.12-5.88-1.77-2.8-3.05-3.61c-1.29-.81-2.74-1.22-4.37-1.22s-3.1.41-4.4,1.23c-1.29.82-2.31,2.03-3.06,3.62s-1.12,3.55-1.12,5.86.37,4.25,1.12,5.84,1.77,2.79,3.06,3.61,2.76,1.23,4.4,1.23Z"/>
    <path d="M160.96,29v-3.17l9.71-10.04c1-1.05,1.83-1.98,2.5-2.78.67-.81,1.17-1.58,1.52-2.32.35-.74.52-1.54.52-2.38,0-.96-.22-1.79-.66-2.48s-1.04-1.22-1.8-1.59-1.63-.56-2.6-.56-1.89.21-2.65.62c-.75.42-1.34,1-1.75,1.76s-.61,1.64-.61,2.67h-4.2c0-1.74.4-3.27,1.21-4.58.81-1.31,1.91-2.33,3.3-3.05S168.44.02,170.23.02s3.41.36,4.79,1.07c1.38.72,2.45,1.69,3.23,2.91s1.17,2.61,1.17,4.16c0,1.05-.19,2.07-.59,3.07-.39,1-1.08,2.12-2.05,3.38-.98,1.25-2.36,2.78-4.14,4.57l-5.61,5.86v.23h12.82v3.74h-18.89Z"/>
  </g>
  <g>
    <path d="M78.65,36.61v21.36h-4.37v-21.36h4.37Z"/>
    <path d="M86.72,48.69v9.28h-4.3v-16.03h4.06l.07,4h-.26c.42-1.34,1.06-2.37,1.91-3.1.86-.73,1.96-1.1,3.32-1.1,1.11,0,2.08.24,2.9.72.83.48,1.47,1.18,1.92,2.08s.68,1.98.68,3.23v10.19h-4.3v-9.45c0-.99-.25-1.77-.77-2.34-.51-.56-1.22-.85-2.13-.85-.6,0-1.14.13-1.61.39s-.84.64-1.1,1.14-.39,1.1-.39,1.82v.02Z"/>
    <path d="M108.66,41.94v3.28h-9.51v-3.28h9.51ZM101.36,38.13h4.3v15.16c0,.51.11.88.34,1.13.22.24.6.37,1.13.37.16,0,.39-.02.69-.06s.52-.08.67-.12l.62,3.23c-.48.14-.95.24-1.43.3-.47.06-.92.09-1.35.09-1.61,0-2.83-.39-3.69-1.18-.85-.78-1.28-1.91-1.28-3.37v-15.55Z"/>
    <path d="M118.41,58.29c-1.63,0-3.04-.33-4.23-1-1.18-.67-2.1-1.62-2.73-2.85-.64-1.23-.95-2.7-.95-4.39s.32-3.1.95-4.34c.63-1.24,1.52-2.21,2.68-2.91,1.16-.7,2.51-1.05,4.07-1.05,1.05,0,2.03.17,2.94.5s1.71.84,2.39,1.51,1.23,1.52,1.61,2.53c.39,1.01.58,2.21.58,3.58v1.2h-13.46v-2.7h11.36l-2.01.72c0-.83-.13-1.56-.38-2.17-.25-.62-.63-1.09-1.13-1.43-.5-.34-1.12-.51-1.86-.51s-1.38.17-1.9.52c-.52.34-.92.81-1.18,1.4s-.4,1.26-.4,2.01v1.91c0,.93.16,1.71.47,2.34s.75,1.1,1.3,1.42,1.21.47,1.96.47c.51,0,.96-.07,1.38-.21s.76-.36,1.05-.64c.29-.28.51-.63.67-1.04l3.9.73c-.26.88-.71,1.65-1.35,2.32-.64.66-1.44,1.18-2.4,1.54-.96.36-2.07.54-3.32.54h-.01Z"/>
    <path d="M135.78,64.31c-1.34,0-2.5-.17-3.5-.51s-1.8-.81-2.42-1.4c-.62-.59-1.05-1.27-1.29-2.02l3.7-1.03c.13.3.34.59.62.87s.66.51,1.12.7c.47.18,1.05.27,1.74.27,1.1,0,1.96-.25,2.59-.75s.94-1.28.94-2.34v-2.95h-.33c-.19.43-.47.85-.83,1.25s-.84.73-1.43.98-1.32.38-2.19.38c-1.2,0-2.3-.28-3.28-.85s-1.77-1.42-2.36-2.58-.88-2.62-.88-4.39.3-3.32.9-4.53c.6-1.21,1.39-2.13,2.38-2.74s2.08-.92,3.26-.92c.9,0,1.65.15,2.27.45.61.3,1.11.68,1.48,1.13.38.45.66.89.85,1.31h.19v-2.7h4.23v15.9c0,1.44-.33,2.64-1,3.6s-1.58,1.67-2.75,2.15-2.5.72-4.01.72ZM135.86,54.47c.74,0,1.36-.18,1.87-.54s.9-.89,1.17-1.57.4-1.5.4-2.46-.13-1.77-.4-2.48c-.27-.71-.66-1.26-1.17-1.65s-1.14-.59-1.87-.59-1.39.2-1.9.61-.9.96-1.16,1.67c-.26.71-.39,1.52-.39,2.44s.13,1.75.39,2.43.65,1.21,1.17,1.58,1.15.56,1.89.56Z"/>
    <path d="M147.21,57.97v-16.03h4.16v2.8h.17c.3-.99.79-1.74,1.48-2.25s1.49-.76,2.39-.76c.22,0,.46.01.72.04.26.02.48.06.67.11v3.84c-.19-.07-.47-.12-.83-.16s-.71-.06-1.03-.06c-.65,0-1.24.14-1.76.42-.53.28-.93.67-1.23,1.18-.29.5-.44,1.09-.44,1.76v9.12h-4.3Z"/>
    <path d="M163.24,58.29c-1.01,0-1.92-.18-2.73-.54s-1.44-.89-1.91-1.61c-.46-.71-.7-1.6-.7-2.66,0-.89.17-1.63.5-2.24.33-.6.78-1.08,1.35-1.45.57-.36,1.21-.64,1.94-.83s1.48-.33,2.27-.4c.93-.1,1.67-.18,2.24-.27.57-.08.98-.21,1.25-.39s.39-.44.39-.78v-.07c0-.46-.1-.85-.29-1.16s-.48-.56-.85-.72c-.38-.17-.83-.25-1.37-.25s-1.04.08-1.45.25-.75.39-1,.67-.45.59-.57.93l-3.94-.65c.28-.94.74-1.73,1.38-2.38.64-.65,1.44-1.15,2.39-1.49s2.02-.52,3.22-.52c.86,0,1.7.1,2.51.31s1.54.52,2.19.95c.64.43,1.16.99,1.53,1.68.38.69.57,1.52.57,2.49v10.8h-4.07v-2.22h-.14c-.26.5-.6.93-1.03,1.31s-.95.68-1.56.9-1.31.33-2.1.33h-.02ZM164.46,55.26c.68,0,1.27-.13,1.79-.4.51-.27.91-.63,1.2-1.09s.43-.97.43-1.53v-1.73c-.12.1-.32.18-.57.26-.26.08-.54.14-.86.2s-.63.11-.93.16c-.31.05-.58.09-.82.12-.53.08-.99.2-1.39.37s-.71.4-.93.68c-.22.28-.33.64-.33,1.08,0,.41.1.76.32,1.04.21.28.5.49.86.64.36.14.78.21,1.25.21h-.02Z"/>
    <path d="M183.77,41.94v3.28h-9.51v-3.28h9.51ZM176.47,38.13h4.3v15.16c0,.51.11.88.34,1.13.22.24.6.37,1.13.37.16,0,.39-.02.69-.06s.52-.08.67-.12l.62,3.23c-.48.14-.95.24-1.43.3-.47.06-.92.09-1.35.09-1.61,0-2.83-.39-3.69-1.18-.85-.78-1.28-1.91-1.28-3.37v-15.55Z"/>
    <path d="M188.72,39.85c-.65,0-1.21-.21-1.66-.64-.46-.43-.69-.95-.69-1.56s.23-1.13.69-1.56,1.01-.65,1.66-.65,1.21.21,1.67.65c.46.43.7.95.7,1.56s-.23,1.13-.7,1.56c-.46.43-1.02.64-1.67.64ZM186.57,57.97v-16.03h4.3v16.03h-4.3Z"/>
    <path d="M201.69,58.29c-1.61,0-3-.35-4.17-1.04-1.18-.69-2.08-1.66-2.72-2.9s-.95-2.68-.95-4.32.32-3.11.95-4.35c.63-1.24,1.54-2.2,2.72-2.9,1.18-.69,2.57-1.04,4.17-1.04s3.01.35,4.18,1.04,2.07,1.66,2.71,2.9.95,2.69.95,4.35-.32,3.08-.95,4.32-1.54,2.2-2.71,2.9c-1.17.69-2.56,1.04-4.18,1.04ZM201.69,54.9c.76,0,1.41-.21,1.92-.64.52-.43.9-1.01,1.16-1.75.26-.74.39-1.58.39-2.5s-.13-1.79-.39-2.52c-.26-.74-.65-1.31-1.16-1.74-.52-.42-1.16-.63-1.92-.63s-1.4.21-1.91.63c-.51.42-.9,1-1.15,1.74-.26.74-.39,1.58-.39,2.52s.13,1.76.39,2.5.64,1.32,1.15,1.75c.51.42,1.15.64,1.91.64Z"/>
    <path d="M216.83,48.69v9.28h-4.3v-16.03h4.06l.07,4h-.26c.42-1.34,1.06-2.37,1.91-3.1.86-.73,1.96-1.1,3.32-1.1,1.11,0,2.08.24,2.9.72.83.48,1.47,1.18,1.92,2.08s.68,1.98.68,3.23v10.19h-4.3v-9.45c0-.99-.25-1.77-.77-2.34-.51-.56-1.22-.85-2.13-.85-.6,0-1.14.13-1.61.39s-.84.64-1.1,1.14c-.26.5-.39,1.1-.39,1.82v.02Z"/>
    <path d="M238.3,57.97v-21.36h7.66c1.64,0,3.02.31,4.11.92,1.1.61,1.92,1.44,2.47,2.48.54,1.04.82,2.22.82,3.54s-.27,2.5-.82,3.55-1.37,1.87-2.47,2.48-2.48.91-4.13.91h-5.23v-2.77h4.92c1.05,0,1.9-.18,2.55-.54s1.12-.86,1.43-1.49c.3-.63.45-1.34.45-2.14s-.15-1.52-.45-2.14c-.3-.63-.78-1.12-1.43-1.47s-1.51-.53-2.57-.53h-4.01v18.57h-3.3Z"/>
    <path d="M260.05,36.61v21.36h-3.15v-21.36h3.15Z"/>
    <path d="M268.78,58.33c-1.01,0-1.93-.19-2.75-.57s-1.47-.93-1.95-1.66-.72-1.62-.72-2.67c0-.91.17-1.65.52-2.24.35-.58.82-1.05,1.42-1.39s1.26-.6,1.99-.77,1.47-.3,2.23-.39c.95-.12,1.72-.21,2.31-.28s1.03-.19,1.31-.36.42-.44.42-.81v-.09c0-.6-.11-1.11-.34-1.52s-.57-.73-1.03-.95-1.02-.34-1.7-.34-1.3.11-1.8.32-.91.49-1.22.82-.54.68-.7,1.05l-2.97-.77c.36-.96.88-1.73,1.56-2.31s1.46-1.01,2.34-1.28,1.79-.4,2.72-.4c.65,0,1.34.08,2.07.23s1.41.43,2.05.83,1.16.96,1.56,1.69.6,1.67.6,2.84v10.64h-3.05v-2.19h-.16c-.21.41-.52.81-.93,1.2s-.93.71-1.56.97-1.37.38-2.24.38l.02.02ZM269.48,55.79c.86,0,1.6-.17,2.21-.5s1.08-.78,1.41-1.33c.32-.55.49-1.14.49-1.76v-2.05c-.12.11-.33.22-.65.31s-.69.17-1.1.24-.81.13-1.19.18-.7.09-.95.11c-.59.08-1.13.21-1.63.39-.49.18-.88.44-1.18.77-.29.33-.44.78-.44,1.33,0,.51.13.93.39,1.28.26.34.62.6,1.07.77s.97.26,1.56.26h.01Z"/>
    <path d="M287.82,41.94v2.57h-8.69v-2.57h8.69ZM281.47,38.13h3.15v15.51c0,.64.14,1.11.41,1.41s.72.45,1.34.45c.16,0,.38-.02.65-.06s.5-.08.69-.11l.56,2.52c-.33.11-.69.2-1.08.25-.38.05-.76.08-1.13.08-1.45,0-2.58-.38-3.38-1.12-.8-.75-1.2-1.8-1.2-3.16v-15.77h0Z"/>
    <path d="M298.11,41.94v2.57h-9.78v-2.57h9.78ZM291.38,57.97v-17.87c0-.99.22-1.83.67-2.49s1.03-1.17,1.76-1.51c.73-.33,1.51-.5,2.35-.5.64,0,1.19.05,1.64.16s.79.2,1,.27l-.73,2.55c-.15-.05-.34-.1-.57-.15s-.5-.08-.84-.08c-.75,0-1.29.19-1.62.56s-.5.91-.5,1.62v17.43h-3.16Z"/>
    <path d="M307.26,58.3c-1.5,0-2.81-.34-3.94-1.03-1.12-.69-2-1.65-2.62-2.9-.62-1.24-.93-2.69-.93-4.33s.31-3.12.93-4.37,1.49-2.21,2.62-2.9c1.12-.69,2.44-1.03,3.94-1.03s2.83.34,3.95,1.03c1.12.69,2,1.66,2.62,2.9.62,1.25.93,2.7.93,4.37s-.31,3.09-.93,4.33c-.62,1.24-1.49,2.21-2.62,2.9-1.12.69-2.44,1.03-3.95,1.03ZM307.26,55.63c.98,0,1.78-.26,2.42-.77.64-.51,1.11-1.19,1.42-2.04.31-.85.47-1.78.47-2.79s-.16-1.96-.47-2.82-.78-1.54-1.42-2.05-1.44-.77-2.42-.77-1.76.26-2.39.77c-.63.51-1.1,1.19-1.41,2.04s-.47,1.79-.47,2.82.16,1.94.47,2.79.78,1.52,1.41,2.04c.63.51,1.43.77,2.39.77h0Z"/>
    <path d="M318.26,57.97v-16.03h3.05v2.58h.17c.3-.88.81-1.57,1.55-2.06s1.57-.75,2.51-.75c.2,0,.43,0,.69.02s.47.04.65.06v3.01c-.12-.04-.33-.08-.66-.11s-.65-.06-.99-.06c-.73,0-1.38.15-1.96.46s-1.04.73-1.36,1.27-.49,1.16-.49,1.87v9.74h-3.16Z"/>
    <path d="M329.99,57.97v-16.03h3l.09,3.71h-.24c.23-.91.58-1.65,1.06-2.24.48-.58,1.04-1.02,1.68-1.31.64-.29,1.31-.44,2.01-.44,1.17,0,2.11.36,2.82,1.08s1.2,1.73,1.45,3.02h-.4c.21-.88.57-1.62,1.09-2.24.52-.61,1.14-1.08,1.87-1.39.73-.32,1.51-.47,2.34-.47.95,0,1.8.21,2.57.62s1.38,1.02,1.83,1.83c.45.81.67,1.83.67,3.04v10.81h-3.15v-10.5c0-1.07-.3-1.84-.9-2.32s-1.3-.72-2.12-.72c-.66,0-1.23.14-1.71.42-.48.28-.85.66-1.1,1.15-.26.49-.39,1.06-.39,1.7v10.27h-3.11v-10.7c0-.86-.27-1.55-.82-2.06-.55-.52-1.25-.77-2.1-.77-.58,0-1.12.14-1.63.41s-.9.67-1.21,1.2c-.3.53-.45,1.18-.45,1.96v9.96h-3.15Z"/>
  </g>
</svg>